<svg width="500" height="151" viewBox="0 0 500 151" fill="none" xmlns="http://www.w3.org/2000/svg">
<path d="M310.19 117.834C281.134 139.25 239.02 150.677 202.76 150.677C151.917 150.677 106.146 131.872 71.5187 100.596C68.7982 98.1369 71.2358 94.7851 74.5005 96.7004C111.87 118.443 158.077 131.524 205.807 131.524C237.997 131.524 273.408 124.864 305.968 111.043C310.887 108.954 315 114.265 310.19 117.834Z" fill="#1E40AF"/>
<path d="M322.27 104.013C318.57 99.2687 297.719 101.772 288.36 102.882C285.509 103.23 285.074 100.749 287.642 98.9639C304.248 87.2763 331.498 90.6498 334.675 94.5675C337.853 98.5069 333.848 125.822 318.243 138.859C315.849 140.861 313.564 139.794 314.63 137.139C318.134 128.39 325.991 108.78 322.27 104.013Z" fill="#1E40AF"/>
<path d="M289.013 16.4541V5.0929C289.013 3.37349 290.319 2.21996 291.886 2.21996H342.75C344.383 2.21996 345.688 3.39526 345.688 5.0929V14.8217C345.667 16.4541 344.295 18.587 341.858 21.9605L315.501 59.5917C325.295 59.3523 335.633 60.8105 344.513 65.8164C346.515 66.9481 347.06 68.6022 347.212 70.2346V82.3575C347.212 84.0116 345.384 85.9487 343.468 84.9475C327.82 76.7422 307.034 75.8499 289.731 85.0346C287.968 85.9922 286.118 84.0769 286.118 82.4228V70.9093C286.118 69.0593 286.14 65.9034 287.99 63.0958L318.526 19.3052H291.951C290.319 19.3052 289.013 18.1517 289.013 16.4541Z" fill="#1E40AF"/>
<path d="M103.469 87.3416H87.9946C86.5146 87.2328 85.3393 86.1228 85.2305 84.7081V5.28879C85.2305 3.69997 86.5581 2.43761 88.2122 2.43761H102.642C104.144 2.50286 105.341 3.65643 105.45 5.0929V15.4747H105.733C109.498 5.44113 116.572 0.761728 126.105 0.761728C135.79 0.761728 141.84 5.44113 146.193 15.4747C149.937 5.44113 158.447 0.761728 167.566 0.761728C174.052 0.761728 181.147 3.43878 185.479 9.44583C190.376 16.1276 189.374 25.8346 189.374 34.3446L189.353 84.4687C189.353 86.0575 188.025 87.3416 186.371 87.3416H170.918C169.373 87.2328 168.132 85.9922 168.132 84.4687V42.3758C168.132 39.024 168.437 30.6664 167.697 27.4887C166.543 22.1564 163.083 20.6546 158.599 20.6546C154.856 20.6546 150.938 23.1576 149.349 27.1623C147.76 31.167 147.913 37.8705 147.913 42.3758V84.4687C147.913 86.0575 146.585 87.3416 144.931 87.3416H129.478C127.911 87.2328 126.692 85.9922 126.692 84.4687L126.67 42.3758C126.67 33.5176 128.129 20.4805 117.138 20.4805C106.016 20.4805 106.451 33.1911 106.451 42.3758V84.4687C106.451 86.0575 105.123 87.3416 103.469 87.3416Z" fill="#1E40AF" fill-opacity="0.72"/>
<path d="M389.479 0.761728C412.441 0.761728 424.868 20.4805 424.868 45.5534C424.868 69.7775 411.135 88.9957 389.479 88.9957C366.931 88.9957 354.655 69.2769 354.655 44.7046C354.655 19.9799 367.083 0.761728 389.479 0.761728ZM389.61 16.9764C378.205 16.9764 377.487 32.5164 377.487 42.2017C377.487 51.9087 377.334 72.6287 389.479 72.6287C401.471 72.6287 402.037 55.9134 402.037 45.7275C402.037 39.024 401.754 31.0146 399.73 24.6593C397.989 19.1311 394.528 16.9764 389.61 16.9764Z" fill="#1E40AF" fill-opacity="0.72"/>
<path d="M454.642 87.3416H439.233C437.688 87.2328 436.447 85.9922 436.447 84.4687L436.425 5.0276C436.556 3.56937 437.84 2.43761 439.407 2.43761H453.75C455.099 2.50286 456.209 3.41702 456.514 4.65761V16.8023H456.797C461.128 5.94172 467.201 0.761728 477.887 0.761728C484.83 0.761728 491.599 3.26467 495.952 10.1205C500 16.4758 500 27.1623 500 34.8452V84.8387C499.826 86.2316 498.542 87.3416 497.018 87.3416H481.5C480.085 87.2328 478.91 86.1881 478.758 84.8387V41.7011C478.758 33.017 479.759 20.3064 469.072 20.3064C465.307 20.3064 461.846 22.8311 460.127 26.6617C457.951 31.5152 457.668 36.347 457.668 41.7011V84.4687C457.646 86.0575 456.297 87.3416 454.642 87.3416Z" fill="#1E40AF" fill-opacity="0.72"/>
<path d="M45.597 49.4058V46.0541C34.4099 46.0541 22.5917 48.4482 22.5917 61.6376C22.5917 68.3193 26.0523 72.8464 31.9941 72.8464C36.347 72.8464 40.2429 70.1693 42.7023 65.8164C45.7493 60.4623 45.597 55.4346 45.597 49.4058ZM61.2023 87.124C60.1793 88.0381 58.6993 88.1034 57.5458 87.494C52.4093 83.2281 51.4952 81.2476 48.6658 77.1776C40.1776 85.8399 34.1706 88.4299 23.1576 88.4299C10.1423 88.4299 0 80.3987 0 64.3146C0 51.7564 6.81234 43.2029 16.4976 39.0241C24.8988 35.3241 36.6299 34.6711 45.597 33.6482V31.6458C45.597 27.9676 45.8799 23.6147 43.7252 20.437C41.8317 17.5859 38.2188 16.4106 35.0411 16.4106C29.1429 16.4106 23.8758 19.4359 22.5917 25.7041C22.3305 27.097 21.3076 28.4682 19.9147 28.5335L4.89705 26.9229C3.6347 26.64 2.24176 25.617 2.58999 23.68C6.05058 5.48471 22.4829 0 37.1958 0C44.7264 0 54.564 2.00235 60.5058 7.70469C68.0364 14.7347 67.3181 24.1153 67.3181 34.3229V58.4382C67.3181 65.6858 70.3217 68.8634 73.1511 72.7811C74.1523 74.174 74.3699 75.8499 73.1076 76.8946C69.9517 79.5281 64.3364 84.4252 61.2458 87.1675L61.2023 87.124Z" fill="#1E40AF"/>
<path d="M246.198 50.0317V46.6799C235.011 46.6799 223.193 49.0741 223.193 62.2634C223.193 68.9452 226.654 73.4723 232.595 73.4723C236.948 73.4723 240.844 70.7952 243.304 66.4423C246.351 61.0881 246.198 56.0605 246.198 50.0317ZM261.803 87.7499C260.781 88.664 259.301 88.7293 258.147 88.1199C253.011 83.854 252.096 81.8734 249.267 77.8034C240.779 86.4658 234.772 89.0558 223.759 89.0558C210.744 89.0558 200.601 81.0246 200.601 64.9405C200.601 52.3823 207.414 43.8288 217.099 39.65C225.5 35.9499 237.231 35.297 246.198 34.2741V32.2717C246.198 28.5935 246.481 24.2405 244.326 21.0629C242.433 18.2117 238.82 17.0364 235.642 17.0364C229.744 17.0364 224.477 20.0617 223.193 26.33C222.932 27.7229 221.909 29.0941 220.516 29.1594L205.498 27.5488C204.236 27.2659 202.843 26.2429 203.191 24.3059C206.652 6.11059 223.084 0.625877 237.797 0.625877C245.328 0.625877 255.165 2.62823 261.107 8.33057C268.638 15.3606 267.919 24.7411 267.919 34.9488V59.064C267.919 66.3117 270.923 69.4893 273.752 73.407C274.753 74.7999 274.971 76.4758 273.709 77.5205C270.553 80.154 264.938 85.0511 261.847 87.7934L261.803 87.7499Z" fill="#1E40AF" fill-opacity="0.72"/>
</svg>
