<svg width="109" height="127" viewBox="0 0 109 127" fill="none" xmlns="http://www.w3.org/2000/svg">
<path d="M106.091 98.9729C104.14 103.412 101.843 107.499 99.1769 111.254C95.5358 116.378 92.5666 119.919 90.2692 121.887C86.7148 125.118 82.9003 126.776 78.8149 126.861C75.889 126.861 72.3454 126.038 68.2383 124.369C64.1095 122.711 60.3167 121.887 56.849 121.887C53.2079 121.887 49.3067 122.711 45.1346 124.369C40.9517 126.038 37.5923 126.904 35.0132 126.99C31.1011 127.15 27.2 125.449 23.2988 121.876C20.8172 119.737 17.7071 116.068 13.9793 110.869C9.98054 105.317 6.69704 98.8874 4.12876 91.5489C1.38709 83.6328 0 75.952 0 68.528C0 60.0128 1.8639 52.6743 5.5917 46.5233C8.52843 41.581 12.4296 37.6872 17.3061 34.8202C22.1934 31.964 27.46 30.4985 33.1493 30.4022C36.2594 30.4022 40.334 31.3542 45.4055 33.2156C50.4554 35.0877 53.7064 36.0397 55.126 36.0397C56.188 36.0397 59.7966 34.9272 65.8976 32.7128C71.6735 30.6589 76.55 29.8138 80.5487 30.1455C91.3745 31.0119 99.502 35.2161 104.909 42.8112C95.2324 48.5986 90.4426 56.7072 90.5401 67.1159C90.6268 75.2246 93.6069 81.964 99.4587 87.3127C102.114 89.7945 105.072 91.72 108.366 93.0787C107.651 95.1326 106.893 97.0902 106.091 98.9729ZM81.2748 2.54598C81.2748 8.90028 78.9232 14.8266 74.2418 20.3144C68.5851 26.8399 61.7472 30.6054 54.3349 30.0171C54.2374 29.2576 54.1832 28.4552 54.1832 27.6102C54.1832 21.5126 56.8707 14.9871 61.6496 9.64907C64.0337 6.9426 67.0679 4.69618 70.7416 2.90967C74.4152 1.14457 77.8829 0.171106 81.1447 0C81.2314 0.85576 81.2748 1.7009 81.2748 2.54598Z" fill="#1E40AF" fill-opacity="0.72"/>
</svg>
