<svg width="467" height="246" viewBox="0 0 467 246" fill="none" xmlns="http://www.w3.org/2000/svg">
<path d="M317.296 186.582C316.454 186.155 309.872 182.255 300.089 182.255C286.867 182.255 277.693 191.454 277.693 203.874C277.693 215.917 286.472 225.512 300.089 225.512C309.703 225.512 316.396 221.69 317.296 221.21V242.965C314.731 243.677 307.74 245.848 298.658 245.848C275.653 245.848 255.459 229.988 255.459 203.867C255.459 179.67 273.728 161.919 298.658 161.919C308.246 161.919 315.359 164.251 317.296 164.828V186.582ZM103.811 186.582C102.988 186.155 96.4127 182.255 86.6302 182.255C73.3817 182.255 64.2147 191.454 64.2147 203.874C64.2147 215.917 72.9995 225.512 86.6302 225.512C96.2442 225.512 102.93 221.69 103.811 221.21V242.965C101.272 243.677 94.2877 245.848 85.1531 245.848C62.1675 245.848 42 229.988 42 203.867C42 179.67 60.2693 161.919 85.1596 161.919C94.7866 161.919 101.887 164.251 103.811 164.828V186.582ZM381.634 182.56C369.5 182.56 360.488 192.109 360.488 203.874C360.488 215.664 369.5 225.207 381.634 225.207C393.755 225.207 402.793 215.664 402.793 203.874C402.793 192.109 393.755 182.56 381.634 182.56ZM424.463 203.874C424.463 227.06 406.563 245.848 381.64 245.848C356.705 245.848 338.831 227.06 338.831 203.867C338.831 180.726 356.711 161.919 381.634 161.919C406.563 161.919 424.463 180.726 424.463 203.874ZM229.94 181.782C229.636 181.685 221.026 179.307 213.952 179.307C205.756 179.307 201.299 182.054 201.299 185.948C201.299 190.884 207.311 192.607 210.673 193.67L216.316 195.465C229.597 199.689 235.641 208.778 235.641 218.651C235.641 239.013 217.735 245.854 202.083 245.854C191.206 245.854 181.015 243.846 180.011 243.638V224.98C181.812 225.434 190.389 227.999 199.323 227.999C209.501 227.999 214.178 225.02 214.178 220.433C214.178 216.325 210.129 213.954 205.057 212.36C203.826 211.946 201.96 211.363 200.69 210.948C189.301 207.346 179.804 200.647 179.804 187.237C179.804 172.077 191.154 161.9 210.006 161.9C219.964 161.9 229.331 164.316 229.94 164.478V181.782Z" fill="#1E40AF" fill-opacity="0.72"/>
<path d="M152.38 244.41H131.927V163.358H152.38V244.41Z" fill="#1E40AF" fill-opacity="0.72"/>
<path d="M20.31 76.2549C20.31 70.6705 15.7492 66.1418 10.1582 66.1418C4.56733 66.1418 0 70.6702 0 76.2482V97.5302C0.06691 100.179 1.16619 102.697 3.06333 104.547C4.96046 106.397 7.50532 107.432 10.155 107.432C12.8047 107.432 15.3496 106.397 17.2467 104.547C19.1438 102.697 20.2431 100.179 20.31 97.5302V76.2549ZM76.0832 48.3327C76.0832 45.6394 75.0133 43.0564 73.1088 41.152C71.2044 39.2475 68.6215 38.1777 65.9282 38.1777C63.2349 38.1777 60.652 39.2475 58.7475 41.152C56.8431 43.0564 55.7732 45.6394 55.7732 48.3327V97.5302C55.7732 100.223 56.8431 102.806 58.7475 104.711C60.652 106.615 63.2349 107.685 65.9282 107.685C68.6215 107.685 71.2044 106.615 73.1088 104.711C75.0133 102.806 76.0832 100.223 76.0832 97.5302V48.326V48.3327ZM131.863 10.1226C131.863 4.53817 127.302 0.00316332 121.711 0.00316332C116.114 0.00316332 111.553 4.53817 111.553 10.1226V117.749C111.62 120.398 112.719 122.916 114.616 124.766C116.513 126.616 119.058 127.651 121.708 127.651C124.358 127.651 126.902 126.616 128.8 124.766C130.697 122.916 131.796 120.398 131.863 117.749V10.1226ZM187.636 48.3327C187.636 45.6394 186.566 43.0564 184.662 41.152C182.757 39.2475 180.174 38.1777 177.481 38.1777C174.788 38.1777 172.205 39.2475 170.3 41.152C168.396 43.0564 167.326 45.6394 167.326 48.3327V97.5302C167.326 100.223 168.396 102.806 170.3 104.711C172.205 106.615 174.788 107.685 177.481 107.685C180.174 107.685 182.757 106.615 184.662 104.711C186.566 102.806 187.636 100.223 187.636 97.5302V48.326V48.3327ZM243.351 76.2549C243.353 73.5756 242.29 71.0053 240.398 69.109C238.505 67.2126 235.937 66.1452 233.257 66.1418C230.572 66.14 227.996 67.2031 226.093 69.0975C224.19 70.9919 223.116 73.5631 223.106 76.2482V97.5302C223.106 100.215 224.172 102.79 226.07 104.688C227.969 106.586 230.544 107.653 233.228 107.653C235.913 107.653 238.488 106.586 240.386 104.688C242.284 102.79 243.351 100.215 243.351 97.5302V76.2549ZM299.15 48.3327C299.083 45.6924 297.987 43.1824 296.096 41.3386C294.205 39.4948 291.669 38.4628 289.027 38.4628C286.386 38.4628 283.849 39.4948 281.958 41.3386C280.067 43.1824 278.972 45.6924 278.905 48.3327V97.5302C278.905 100.215 279.971 102.79 281.87 104.688C283.768 106.586 286.343 107.653 289.027 107.653C291.712 107.653 294.287 106.586 296.185 104.688C298.083 102.79 299.15 100.215 299.15 97.5302V48.326V48.3327ZM354.962 10.1226C354.962 7.43793 353.895 4.86318 351.997 2.96482C350.099 1.06646 347.524 0 344.839 0C342.155 0 339.58 1.06646 337.682 2.96482C335.783 4.86318 334.717 7.43793 334.717 10.1226V117.749C334.657 119.116 334.874 120.48 335.356 121.761C335.838 123.041 336.574 124.211 337.52 125.199C338.465 126.187 339.602 126.974 340.86 127.511C342.118 128.048 343.471 128.325 344.839 128.325C346.207 128.325 347.561 128.048 348.819 127.511C350.077 126.974 351.213 126.187 352.159 125.199C353.105 124.211 353.841 123.041 354.323 121.761C354.804 120.48 355.022 119.116 354.962 117.749V10.1226ZM410.761 48.3327C410.761 42.7418 406.233 38.2002 400.512 38.2002C397.828 38.2019 395.254 39.2694 393.356 41.1682C391.459 43.067 390.393 45.6416 390.393 48.326V97.5302C390.393 103.147 394.928 107.675 400.512 107.675C406.233 107.675 410.761 103.147 410.761 97.5302V48.326V48.3327ZM466.456 76.2549C466.456 73.5676 465.389 70.9902 463.489 69.09C461.589 67.1898 459.011 66.1224 456.324 66.1224C453.637 66.1224 451.06 67.1898 449.159 69.09C447.259 70.9902 446.192 73.5676 446.192 76.2549V97.5302C446.192 103.147 450.733 107.682 456.324 107.682C461.909 107.682 466.45 103.147 466.45 97.5302V76.2549H466.456Z" fill="#1E40AF"/>
<path d="M454.75 233.734V235.003H451.135V244.404H449.645V235.01H446.017V233.734H454.75ZM455.508 233.734H457.834L461.028 242.486H461.079L464.17 233.74H466.45V244.404H464.928V235.658H464.876L461.637 244.404H460.231L457.069 235.658H456.998V244.404H455.508V233.734Z" fill="#1E40AF" fill-opacity="0.72"/>
</svg>
