<svg width="500" height="165" viewBox="0 0 500 165" fill="none" xmlns="http://www.w3.org/2000/svg">
<path d="M213.974 86.6357C213.974 110.318 195.444 127.762 172.715 127.762C149.987 127.762 131.457 110.318 131.457 86.6357C131.457 62.7946 149.987 45.5099 172.715 45.5099C195.457 45.5099 213.974 62.7946 213.974 86.6357ZM195.921 86.6357C195.921 71.841 185.179 61.7085 172.729 61.7085C160.265 61.7085 149.536 71.8277 149.536 86.6357C149.536 101.285 160.278 111.563 172.729 111.563C185.179 111.563 195.921 101.271 195.921 86.6357Z" fill="#1E40AF" fill-opacity="0.72"/>
<path d="M302.98 86.6357C302.98 110.318 284.45 127.762 261.722 127.762C238.993 127.762 220.464 110.318 220.464 86.6357C220.464 62.8079 238.993 45.5099 261.722 45.5099C284.464 45.5099 302.98 62.7946 302.98 86.6357ZM284.927 86.6357C284.927 71.841 274.185 61.7085 261.735 61.7085C249.272 61.7085 238.543 71.8277 238.543 86.6357C238.543 101.285 249.285 111.563 261.735 111.563C274.185 111.563 284.927 101.271 284.927 86.6357Z" fill="#1E40AF" fill-opacity="0.72"/>
<path d="M388.278 47.9993V121.84C388.278 152.211 370.371 164.622 349.192 164.622C329.258 164.622 317.258 151.284 312.742 140.383L328.464 133.84C331.258 140.529 338.119 148.436 349.179 148.436C362.729 148.436 371.139 140.079 371.139 124.33V118.41H370.503C366.464 123.403 358.675 127.761 348.848 127.761C328.278 127.748 309.444 109.84 309.444 86.794C309.444 63.5755 328.278 45.5225 348.848 45.5225C358.662 45.5225 366.45 49.8801 370.503 54.7145H371.139V48.0258H388.291L388.278 47.9993ZM372.411 86.794C372.411 72.3172 362.755 61.7212 350.45 61.7212C337.987 61.7212 327.55 72.3039 327.55 86.794C327.55 101.125 337.987 111.562 350.45 111.562C362.755 111.562 372.411 101.125 372.411 86.794Z" fill="#1E40AF" fill-opacity="0.72"/>
<path d="M416.556 4.71464V125.244H398.94V4.71464H416.556Z" fill="#1E40AF" fill-opacity="0.72"/>
<path d="M485.205 100.173L499.218 109.524C494.689 116.212 483.788 127.749 464.954 127.749C441.589 127.749 424.146 109.683 424.146 86.623C424.146 62.1595 441.748 45.4972 462.94 45.4972C484.278 45.4972 494.728 62.4774 498.132 71.6562L500 76.3316L445.02 99.0999C449.232 107.352 455.775 111.563 464.954 111.563C474.159 111.563 480.53 107.034 485.205 100.173ZM442.053 85.378L478.808 70.1197C476.781 64.9807 470.702 61.4045 463.55 61.4045C454.371 61.4045 441.589 69.5105 442.053 85.378Z" fill="#1E40AF" fill-opacity="0.72"/>
<path d="M64.7815 75.947V58.4901H123.576C124.146 61.5364 124.45 65.1258 124.45 69.0199C124.45 82.106 120.874 98.3046 109.338 109.828C98.1192 121.51 83.7881 127.735 64.7947 127.735C29.6026 127.735 0 99.0728 0 63.8675C0 28.6623 29.5894 0 64.7947 0C84.2649 0 98.1325 7.64239 108.556 17.6026L96.2384 29.9205C88.7682 22.9139 78.6358 17.457 64.7682 17.457C39.0728 17.457 18.9669 38.1722 18.9669 63.8675C18.9669 89.5629 39.0728 110.278 64.7682 110.278C81.4437 110.278 90.9271 103.589 97.0199 97.4967C101.947 92.5695 105.192 85.5232 106.477 75.894L64.7815 75.947Z" fill="#1E40AF" fill-opacity="0.72"/>
</svg>
