<svg width="500" height="108" viewBox="0 0 500 108" fill="none" xmlns="http://www.w3.org/2000/svg">
<path d="M0 51.2656H50.7812V0.484375H0V51.2656Z" fill="#1E40AF"/>
<path d="M56.1328 0.757812C55.9766 0.875 55.8594 12.3203 55.8594 26.1484V51.2656H106.641V0.484375H81.5234C67.6953 0.484375 56.25 0.601562 56.1328 0.757812Z" fill="#1E40AF"/>
<path d="M463.672 17.6719C459.57 18.5703 455.234 21.6172 453.398 24.9766C451.797 27.9453 451.172 30.9922 451.172 35.7188V39.8984L443.555 40.1328L443.32 48.9219H451.172V86.0312H462.109V48.9219H478.125V60.7188C478.164 74.8203 478.437 77.4766 480.156 80.9531C481.602 83.7656 483.867 85.6406 486.836 86.4609C489.336 87.125 494.766 87.0078 497.578 86.2266L500 85.5234V76.7734L497.773 77.5156C494.18 78.7266 491.367 77.9844 489.961 75.3672C489.336 74.2734 489.258 72.6719 489.141 61.5L489.023 48.9219H500V39.9375H489.062V26.5781L488.008 26.8516C487.383 26.9688 484.922 27.7109 482.539 28.4531L478.125 29.8203V40.1328L462.031 39.8984L462.148 35.3281C462.305 30.3281 462.812 28.8828 464.922 27.3203C466.367 26.2656 469.727 25.9922 472.031 26.7734L473.828 27.3984V22.75C473.828 18.8047 473.75 18.1016 473.164 17.9063C471.992 17.4375 465.469 17.3203 463.672 17.6719Z" fill="#1E40AF" fill-opacity="0.72"/>
<path d="M220.469 21.5391C218.438 22.7891 217.461 24.5078 217.461 26.8906C217.461 30.7188 220.352 33.1797 224.531 32.8281C228.086 32.5156 230.273 30.25 230.273 26.8516C230.273 24.5078 229.492 23.1406 227.344 21.6563C225.664 20.5234 222.227 20.4453 220.469 21.5391Z" fill="#1E40AF" fill-opacity="0.72"/>
<path d="M138.672 86.0312H149.219L149.141 61.4219C149.062 47.8672 149.141 36.8125 149.258 36.8125C149.375 36.8125 153.906 47.9062 159.375 61.4219L169.297 86.0703L177.109 85.8359L186.758 61.5C192.07 48.1016 196.523 37.0469 196.641 36.9297C196.758 36.7734 196.875 47.7891 196.875 61.3438V86.0312H207.812V21.9688H192.734L183.789 43.9219C178.867 56.0312 174.492 66.6953 174.102 67.6328L173.32 69.3906L169.922 60.7969C168.047 56.1094 163.828 45.4453 160.547 37.0859L154.57 21.9688H138.672V86.0312Z" fill="#1E40AF" fill-opacity="0.72"/>
<path d="M254.687 39.7422C246.758 41.5391 240.547 47.2031 237.891 55.1719C236.68 58.6875 236.367 66.3828 237.266 70.1719C238.672 76.0703 242.93 81.7734 247.852 84.3516C253.945 87.5156 263.047 87.8281 269.805 85.1719L272.07 84.2734L272.266 79.2734C272.383 76.5391 272.422 74.3125 272.383 74.3125C272.344 74.3125 271.172 74.9375 269.766 75.6797C263.242 79.3125 255.937 78.6875 251.68 74.1953C248.477 70.8359 247.227 65.9922 248.047 60.2891C248.828 54.8594 251.953 50.6406 256.484 48.9609C260.742 47.3594 266.797 48.1016 270.703 50.7578C271.445 51.2266 272.148 51.6562 272.266 51.6562C272.383 51.6562 272.422 49.3125 272.344 46.4219L272.227 41.1875L269.609 40.3281C266.211 39.1953 258.516 38.8828 254.687 39.7422Z" fill="#1E40AF" fill-opacity="0.72"/>
<path d="M301.172 39.5859C297.344 40.1328 294.336 42.3594 292.422 46.0703L291.445 47.9453L291.406 43.9219V39.8984L280.664 40.1328L280.547 63.0625L280.469 86.0312H291.367L291.602 57.7109L292.695 55.3672C294.414 51.7344 296.406 49.8984 299.375 49.3516C301.367 49 304.609 49.4297 306.328 50.3281L307.422 50.9141V45.6406C307.422 41.8516 307.266 40.2891 306.953 40.0547C306.133 39.5859 303.047 39.3125 301.172 39.5859Z" fill="#1E40AF" fill-opacity="0.72"/>
<path d="M325.43 39.7422C316.953 41.6562 310.938 47.5937 308.789 56.1484C307.891 59.7031 307.852 66.8516 308.75 70.5625C310.586 78.3359 316.445 84.2344 324.297 86.3047C327.656 87.1641 334.492 87.1641 338.086 86.2266C345.078 84.4688 350.742 79.5469 353.164 73.2188C354.57 69.3516 355.195 65.1719 354.922 60.8359C354.531 53.7656 352.656 49.1953 348.672 45.1719C346.172 42.7109 344.375 41.5781 340.625 40.25C337.734 39.1953 329.062 38.9219 325.43 39.7422ZM336.914 49.0781C339.531 50.25 341.875 52.9844 342.812 55.8359C343.398 57.6328 343.555 59.2344 343.555 63.375C343.516 67.9453 343.398 68.9609 342.617 70.9141C341.484 73.8047 339.844 75.6406 337.344 76.9297C335.625 77.8281 334.844 77.9453 331.836 77.9453C327.969 77.9453 325.859 77.2812 323.516 75.3281C319.844 72.1641 318.164 64.625 319.727 57.9844C320.82 53.4531 322.852 50.7187 326.367 49.0781C329.141 47.75 334.141 47.75 336.914 49.0781Z" fill="#1E40AF" fill-opacity="0.72"/>
<path d="M371.602 39.7422C366.992 41.0313 362.891 44.2734 361.289 47.8672C360 50.7969 360 56.1094 361.328 58.8828C362.93 62.1641 364.727 63.5703 371.641 66.8906C375.117 68.5703 378.281 70.3281 378.672 70.7578C379.688 71.8906 379.961 74.8203 379.141 76.0703C376.914 79.4688 368.633 79.1172 362.422 75.3281L360.156 73.9609V84.4688L361.562 85.0547C365.898 86.8516 374.258 87.4375 378.828 86.2656C383.867 84.9766 387.578 82.2422 389.453 78.4141C390.234 76.7734 390.391 75.875 390.391 72.75C390.391 69.7031 390.273 68.7656 389.57 67.4375C387.617 63.7266 385.117 61.8516 378.086 58.6875C372.93 56.4219 371.523 55.2109 371.211 52.8672C370.469 47.5156 378.555 45.9531 386.445 49.9375L388.32 50.9141L388.086 40.9531L385.742 40.2109C382.539 39.1953 374.453 38.9219 371.602 39.7422Z" fill="#1E40AF" fill-opacity="0.72"/>
<path d="M412.305 39.8984C406.797 41.2656 401.992 44.5859 399.18 48.9609C395.117 55.3281 394.219 65.7188 397.07 73.4141C400.586 82.8281 410.547 88.2188 421.836 86.8125C428.281 86.0312 431.797 84.4297 435.742 80.4062C440.508 75.6016 442.344 70.6406 442.344 62.5938C442.344 54.7422 440.508 49.5859 436.211 45.25C433.32 42.3984 430.82 40.9922 426.719 39.9375C422.852 38.9219 416.211 38.9219 412.305 39.8984ZM424.844 49.1953C427.031 50.3672 429.062 52.7109 430.117 55.4062C430.859 57.3594 431.016 58.4531 431.016 62.7891C431.055 70.7969 429.414 74.5469 424.844 76.8516C422.773 77.8672 422.109 77.9844 419.18 77.9844C414.961 77.9453 412.344 76.9297 410.156 74.4297C407.617 71.5 406.875 69.0781 406.836 63.375C406.836 55.5625 408.594 51.7344 413.359 49.3125C415.703 48.1406 415.977 48.1016 419.531 48.2188C422.344 48.3359 423.633 48.5703 424.844 49.1953Z" fill="#1E40AF" fill-opacity="0.72"/>
<path d="M218.359 86.0312H229.297L229.219 63.0625L229.102 40.1328L218.359 39.8984V86.0312Z" fill="#1E40AF" fill-opacity="0.72"/>
<path d="M0 107.516H50.7812V56.7344H0V107.516Z" fill="#1E40AF"/>
<path d="M55.9375 82.0078L56.0547 107.32L81.3672 107.438L106.641 107.516V56.7344H55.8594L55.9375 82.0078Z" fill="#1E40AF"/>
</svg>
